<?xml version="1.0" standalone="no"?>
<!DOCTYPE svg PUBLIC "-//W3C//DTD SVG 20010904//EN"
 "http://www.w3.org/TR/2001/REC-SVG-20010904/DTD/svg10.dtd">
<svg version="1.0" xmlns="http://www.w3.org/2000/svg"
 width="1024.000000pt" height="1024.000000pt" viewBox="0 0 1024.000000 1024.000000"
 preserveAspectRatio="xMidYMid meet">

<g transform="translate(0.000000,1024.000000) scale(0.100000,-0.100000)"
fill="#000000" stroke="none">
<path d="M8589 7928 c-124 -44 -249 -138 -249 -188 0 -24 6 -24 -60 2 -44 17
-76 22 -160 22 -101 1 -108 0 -181 -36 -82 -40 -194 -136 -253 -216 -48 -65
-104 -179 -131 -264 -20 -64 -23 -68 -29 -42 -4 16 -17 44 -29 62 -28 43 -154
132 -237 168 -57 25 -77 29 -160 29 -109 -1 -166 -21 -256 -93 l-52 -41 -42
21 -42 21 -152 -43 c-210 -59 -232 -70 -256 -122 -11 -24 -27 -86 -36 -139
l-17 -97 -59 44 c-161 118 -312 140 -467 67 -53 -25 -138 -99 -159 -138 -10
-18 -13 -19 -34 -6 -63 40 -80 44 -162 39 -267 -17 -468 -249 -554 -638 l-18
-84 -23 65 c-80 219 -186 326 -348 349 -135 18 -313 -38 -442 -140 -37 -30
-51 -37 -48 -24 3 11 9 37 13 59 4 22 9 44 12 50 3 5 7 16 7 25 4 39 107 514
159 730 30 121 32 193 7 268 -14 45 -31 65 -112 140 -52 48 -104 94 -114 102
-19 15 -19 14 -3 -11 32 -51 42 -104 28 -154 -7 -25 -15 -45 -19 -45 -3 1 -16
23 -29 50 -18 38 -35 57 -70 78 -42 24 -57 27 -132 27 -75 -1 -93 -5 -151 -33
-82 -39 -159 -119 -200 -205 -36 -77 -89 -257 -119 -398 -12 -57 -22 -105 -23
-106 -9 -8 -167 153 -220 225 -36 48 -81 103 -102 122 l-37 35 48 -80 c26 -44
60 -108 75 -142 28 -61 72 -203 65 -210 -2 -2 -31 41 -65 97 -197 320 -328
414 -576 414 -125 0 -197 -16 -314 -70 -241 -111 -447 -313 -632 -620 -326
-539 -547 -1242 -631 -2004 -16 -154 -16 -549 1 -670 44 -318 152 -580 337
-816 41 -53 73 -98 71 -100 -2 -3 -26 15 -53 39 -27 24 -60 50 -74 57 -33 17
20 -40 156 -170 54 -52 166 -159 247 -237 161 -154 243 -207 368 -239 129 -34
315 -17 443 40 31 14 59 25 62 25 3 0 29 37 58 83 87 136 259 406 434 683 91
143 178 277 194 297 l28 36 -45 38 c-25 20 -43 39 -41 41 2 3 25 -7 49 -22 83
-48 88 -48 304 5 109 27 266 68 348 90 83 22 290 76 460 119 171 44 382 101
470 127 88 25 210 59 270 74 61 15 184 48 275 74 91 26 273 78 405 116 132 38
403 114 603 169 200 56 371 105 380 110 9 5 79 25 154 44 180 47 199 57 232
118 15 27 30 49 32 49 8 0 -170 -342 -283 -545 -144 -258 -198 -348 -227 -374
-32 -30 -89 -46 -1522 -436 -621 -168 -1147 -313 -1169 -321 -37 -13 -44 -22
-98 -127 -31 -61 -75 -144 -97 -183 l-39 -72 -88 18 c-48 10 -129 25 -179 32
l-91 15 -153 -251 c-85 -138 -172 -281 -194 -318 -51 -84 -67 -78 -54 19 10
71 90 503 131 706 14 64 22 117 18 116 -3 0 -37 -40 -76 -88 -38 -49 -140
-171 -225 -273 -85 -102 -177 -213 -203 -247 -26 -34 -52 -59 -56 -56 -15 8
25 -112 51 -155 13 -21 80 -92 150 -157 69 -65 201 -189 293 -277 186 -175
232 -205 340 -213 82 -7 150 15 197 65 34 35 126 174 217 328 66 112 58 109
235 109 145 0 153 1 208 28 97 47 148 127 198 304 26 95 7 83 210 133 267 67
2085 560 2325 631 197 59 307 161 409 382 l42 91 31 -45 c17 -24 42 -55 56
-68 14 -13 29 -36 32 -52 4 -19 32 -51 77 -91 39 -35 119 -108 177 -164 83
-78 121 -107 176 -132 119 -53 185 -60 343 -36 167 26 366 172 500 367 136
197 253 521 308 852 9 55 17 101 18 102 1 1 24 -5 51 -13 28 -9 86 -16 130
-17 70 -1 87 3 138 28 111 55 232 221 272 375 31 117 12 261 -41 310 -13 13
-24 29 -24 36 0 20 -58 83 -171 187 -58 53 -120 115 -137 137 l-32 39 30 178
c16 98 39 228 49 288 11 61 27 151 36 200 8 50 31 178 50 285 50 283 65 413
65 573 0 254 -25 312 -214 502 -120 122 -174 163 -195 150 -4 -2 -32 5 -62 16
-36 14 -86 23 -149 25 -81 4 -105 1 -161 -18z m194 -57 c19 -19 22 -32 21
-104 -1 -45 -13 -140 -27 -212 -15 -71 -47 -242 -72 -380 -25 -137 -52 -270
-59 -295 -8 -25 -60 -277 -115 -560 -55 -283 -109 -560 -121 -614 -12 -54 -20
-105 -18 -112 2 -8 29 7 73 41 125 97 255 145 354 130 117 -18 151 -79 121
-220 -15 -73 -33 -110 -73 -153 -48 -50 -110 -64 -232 -54 -93 8 -260 1 -272
-11 -3 -3 -22 -90 -44 -194 -144 -693 -333 -1038 -634 -1153 -90 -34 -240 -35
-310 -1 -74 36 -151 119 -170 184 -123 400 183 932 675 1177 47 23 86 43 87
44 1 0 11 69 23 151 11 83 25 164 30 180 24 85 20 88 -24 14 -60 -102 -133
-179 -203 -216 -110 -58 -198 -61 -286 -9 -50 29 -77 62 -108 131 -11 25 -23
45 -27 45 -4 0 -32 -39 -62 -86 -123 -192 -266 -294 -413 -294 -75 0 -125 34
-168 112 -32 60 -33 68 -32 158 1 115 6 141 144 835 60 302 109 574 109 604 0
42 -5 60 -22 78 -28 30 -90 31 -136 3 -60 -37 -82 -111 -157 -525 -25 -137
-52 -268 -60 -290 -15 -44 -74 -351 -130 -676 -41 -241 -56 -302 -89 -367 -50
-99 -156 -172 -249 -172 -84 0 -125 35 -148 125 l-12 46 -35 -62 c-51 -92
-161 -202 -238 -240 -72 -36 -160 -42 -211 -15 -50 25 -109 100 -125 158 l-15
53 -28 -55 c-84 -168 -219 -321 -330 -374 -84 -40 -177 -47 -239 -17 -82 40
-132 123 -145 240 l-7 66 -43 -89 c-55 -119 -112 -196 -211 -290 -59 -55 -105
-87 -164 -116 -103 -50 -168 -63 -275 -58 -106 6 -183 34 -257 94 -29 24 -56
44 -58 44 -2 0 -23 -32 -46 -71 -23 -39 -71 -102 -107 -140 -53 -56 -85 -79
-158 -115 -78 -39 -103 -46 -171 -51 -170 -12 -292 66 -381 243 l-26 51 61
259 c34 142 84 367 111 499 28 132 73 344 101 470 27 127 90 430 139 675 148
736 230 1079 283 1187 61 124 185 207 310 207 59 0 73 -4 110 -30 78 -54 81
-106 23 -329 -57 -216 -246 -1043 -360 -1575 -19 -85 -46 -202 -60 -260 -56
-224 -207 -902 -219 -987 -3 -24 -2 -44 4 -48 13 -8 109 54 154 101 80 82 109
161 121 324 13 179 137 773 204 979 83 251 190 419 340 531 119 89 233 132
350 132 111 0 174 -25 235 -93 106 -117 120 -287 40 -520 -39 -116 -78 -186
-177 -319 -130 -176 -296 -323 -465 -414 -74 -40 -77 -43 -85 -86 -15 -81 -3
-181 27 -236 30 -55 92 -94 148 -94 128 1 335 114 426 232 104 137 136 221
182 487 30 168 38 199 65 231 18 21 30 69 65 270 60 340 105 486 191 615 149
223 399 300 540 168 l27 -25 33 62 c58 108 153 170 274 177 83 5 129 -14 158
-65 18 -31 19 -40 7 -125 -7 -51 -27 -168 -46 -262 -19 -93 -45 -235 -59 -315
-14 -80 -32 -170 -41 -200 -40 -140 -134 -628 -134 -700 0 -80 -1 -78 39 -69
65 14 130 113 211 320 50 128 89 279 130 509 63 347 211 1036 227 1050 13 12
292 90 322 90 7 0 29 -27 49 -60 l38 -60 17 36 c30 61 107 135 174 166 78 35
184 39 248 9 127 -59 179 -215 141 -421 -21 -118 -94 -484 -159 -805 -98 -480
-99 -517 -7 -425 93 93 158 289 239 721 140 748 179 876 316 1041 144 173 356
251 491 181 67 -34 84 -71 84 -181 l0 -94 -35 31 c-46 40 -103 43 -150 7 -73
-56 -119 -192 -185 -541 -21 -115 -50 -259 -63 -320 -14 -60 -44 -215 -67
-342 -41 -222 -42 -234 -26 -258 41 -62 109 -57 185 11 87 78 138 209 182 469
36 214 210 1158 225 1225 l15 66 70 44 c104 65 173 91 237 87 38 -3 59 -10 75
-26z m-6238 -402 c148 -55 240 -150 329 -340 94 -202 131 -429 123 -769 -5
-234 -25 -407 -66 -566 -11 -44 -41 -183 -66 -310 -69 -347 -162 -762 -205
-913 -86 -305 -191 -518 -363 -741 -230 -297 -436 -432 -699 -460 -209 -21
-366 40 -515 203 -162 178 -253 521 -253 957 1 435 98 969 270 1480 132 393
329 792 507 1023 179 232 418 405 628 453 86 20 234 12 310 -17z m4791 -2509
c-25 -34 -62 -89 -82 -122 l-38 -61 -57 61 c-94 100 -99 90 69 144 81 25 148
45 150 43 2 -2 -17 -31 -42 -65z"/>
<path d="M3628 7703 c7 -3 16 -2 19 1 4 3 -2 6 -13 5 -11 0 -14 -3 -6 -6z"/>
<path d="M5435 6664 c-96 -49 -132 -132 -180 -409 -15 -82 -53 -271 -86 -419
-68 -307 -139 -673 -139 -715 0 -44 23 -57 57 -33 103 75 198 230 258 424 14
46 56 236 95 423 38 187 81 390 96 450 16 64 27 141 28 183 1 67 -1 75 -24 92
-30 24 -65 25 -105 4z"/>
<path d="M4230 6434 c-17 -15 -42 -49 -56 -76 -42 -84 -188 -707 -170 -725 15
-15 118 52 171 109 116 129 195 355 195 558 0 84 -13 121 -49 143 -39 23 -54
21 -91 -9z"/>
<path d="M4519 5873 c-13 -16 -12 -17 4 -4 9 7 17 15 17 17 0 8 -8 3 -21 -13z"/>
<path d="M8798 5693 c7 -3 16 -2 19 1 4 3 -2 6 -13 5 -11 0 -14 -3 -6 -6z"/>
<path d="M7845 4998 c-115 -132 -183 -227 -235 -333 -75 -152 -95 -247 -64
-307 l16 -30 40 38 c88 87 185 282 272 554 26 79 45 147 44 151 -2 4 -34 -29
-73 -73z"/>
<path d="M2246 7235 c-158 -56 -315 -407 -500 -1115 -140 -538 -199 -829 -245
-1200 -31 -247 -43 -431 -43 -670 -1 -314 23 -439 93 -475 91 -48 205 44 294
238 120 263 316 1024 469 1827 95 499 130 787 131 1080 0 191 -2 208 -22 253
-33 71 -93 92 -177 62z"/>
<path d="M4170 7612 c0 -7 6 -23 14 -35 43 -66 38 -154 -17 -281 -16 -39 -62
-200 -102 -358 -63 -255 -74 -317 -49 -277 10 17 142 75 203 89 30 7 85 13
122 14 38 0 65 2 60 4 -10 3 1 76 30 197 26 109 29 242 7 301 -26 71 -110 193
-190 278 -43 44 -78 75 -78 68z"/>
</g>
</svg>
